# xmcd
#
# Track frame offsets:
#	150
#	25730
#	51540
#	72675
#	95273
#	118491
#	145129
#	175580
#	194952
#	213604
#
# Disc length: 3227 seconds
#
# Revision: 0
# Processed by: cddbd v1.5.2PL0 Copyright (c) Steve Scherf et al.
# Submitted via: EasyCDDAExtractor 16.0.4.1
#
DISCID=a40c990a
DTITLE=Quốc Đại - Về Đi Em.. Tìm Một Tình Yêu
DYEAR=2004
DGENRE=Pop
TTITLE0=Bà Năm
TTITLE1=Về Đi Em
TTITLE2=Tìm Một Tình Yêu
TTITLE3=Sơn Nữ Ca
TTITLE4=Cho Dù Có Đi Nơi Đâu
TTITLE5=Chuyện Tình Sông Hương
TTITLE6=Bão Lũ
TTITLE7=Giấc Mơ Pha Lê
TTITLE8=Đồng Giao Ơi
TTITLE9=Tiếng Sông Hương
EXTD=
EXTT0=
EXTT1=
EXTT2=
EXTT3=
EXTT4=
EXTT5=
EXTT6=
EXTT7=
EXTT8=
EXTT9=
PLAYORDER=
